<?xml version="1.0" encoding="utf-8"?>
<!-- Generator: Adobe Illustrator 28.0.0, SVG Export Plug-In . SVG Version: 6.00 Build 0)  -->
<svg version="1.1" id="Layer_1" xmlns="http://www.w3.org/2000/svg" xmlns:xlink="http://www.w3.org/1999/xlink" x="0px" y="0px"
	 viewBox="0 0 151.2 49.6" style="enable-background:new 0 0 151.2 49.6;" xml:space="preserve">
<style type="text/css">
	.st0{clip-path:url(#SVGID_00000019642215810150856890000011265895001390583484_);}
	.st1{fill:#3268CA;}
</style>
<g>
	<defs>
		<rect id="SVGID_1_" width="151.2" height="49.6"/>
	</defs>
	<clipPath id="SVGID_00000039133064779847081050000006106059523421194651_">
		<use xlink:href="#SVGID_1_"  style="overflow:visible;"/>
	</clipPath>
	<g style="clip-path:url(#SVGID_00000039133064779847081050000006106059523421194651_);">
		<path class="st1" d="M32.6,21.5c-0.9-7.9-6-11.8-14.2-11.8C8.3,9.6,1,16.4,0.1,26.4c-0.8,9.4,5.3,16.4,15.5,16.4
			c8.2,0,14-3.9,16.4-11.7c0.1-0.3,0-0.4-0.3-0.4h-9.1c-0.2,0-0.4,0.1-0.4,0.4c-0.8,3.1-2.9,4.5-5.9,4.5c-4.3,0-6.3-3.4-5.7-9.4
			c0.5-5.9,3-9.1,7.1-9.1c3.1,0,4.8,1.5,5.2,4.6c0.1,0.2,0.2,0.4,0.4,0.4h8.9C32.4,22,32.6,21.8,32.6,21.5 M43.2,26.5l1.5-15.6
			c0-0.2-0.1-0.4-0.4-0.4h-8.5c-0.2,0-0.4,0.2-0.4,0.4l-1.2,15.5l-1.5,15.2c0,0.2,0.1,0.4,0.4,0.4h8.5c0.2,0,0.4-0.2,0.4-0.4
			L43.2,26.5L43.2,26.5z M60.5,27.4h-5.9c0.7-2.7,2-3.3,3.4-3.3C59.7,24,60.7,25.4,60.5,27.4 M69.7,32c0.7-9.3-3.4-13.9-11.5-13.9
			c-7.2,0-12.8,4.8-13.4,12.3c-0.6,7.3,3.9,12.2,11.7,12.2c7.1,0,11.4-4.3,12.5-8.1c0.1-0.3-0.1-0.4-0.3-0.4h-8.2
			c-0.2,0-0.4,0.1-0.5,0.4c-0.6,1.3-1.7,2-3.1,2c-1.8,0-2.9-0.7-2.9-4.1h15.3C69.4,32.4,69.6,32.3,69.7,32 M88,30.4
			c-0.4,4.3-1.9,6-4.2,6s-3.5-1.7-3.1-6c0.4-4.2,1.9-6,4.3-6C87.4,24.4,88.4,26.2,88,30.4 M97.1,30.5l1.1-11.3
			c0-0.2-0.1-0.4-0.4-0.4h-8.7c-0.3,0-0.4,0.1-0.4,0.4v1.6c-1.3-1.6-3.3-2.5-5.9-2.5c-6.5,0-11.2,5.4-11.8,12.1
			c-0.6,6.8,2.6,12,9.1,12c3,0,5.4-1.1,7.1-3L87,41.6c0,0.2,0.1,0.4,0.4,0.4h8.4c0.2,0,0.4-0.2,0.4-0.4L97.1,30.5
			C97.1,30.5,97.1,30.5,97.1,30.5z M124.1,26.8c0.4-4.9-2.2-8.6-7.7-8.6c-2.8,0-5.7,0.8-7.5,3.2l0.3-2.3c0-0.3-0.1-0.4-0.4-0.4h-8.2
			c-0.2,0-0.4,0.2-0.4,0.4l-1,11.1l-1.1,11.3c0,0.2,0.1,0.4,0.4,0.4h8.8c0.2,0,0.4-0.2,0.4-0.4l0.7-9.3c0.4-4.4,2-7.2,4.3-7.2
			c1.3,0,2.1,0.8,1.9,2.8l-0.4,4.3l-1,9.4c0,0.2,0.1,0.4,0.4,0.4h8.8c0.2,0,0.4-0.2,0.4-0.4l0.3-4.8c-0.3-0.4-0.6-0.7-0.9-1.1
			c-1.1-1.1-2.5-2-4.1-2.5c-0.1,0-0.2-0.1-0.3-0.2c-0.1-0.1-0.1-0.2-0.1-0.3l0,0c0-0.1,0-0.2,0.1-0.3c0.1-0.1,0.2-0.2,0.3-0.2
			c1.5-0.5,2.9-1.4,4.1-2.5c0.7-0.7,1.2-1.4,1.7-2.3L124.1,26.8L124.1,26.8L124.1,26.8z M150.9,18.8h-8.6c-0.2,0-0.4,0.1-0.5,0.4
			l-4.2,11.8l-2.7-11.8c0-0.2-0.2-0.3-0.4-0.3h-9.8c-0.3,0-0.4,0.2-0.3,0.4l2.5,8.1c0.5,0.8,1,1.5,1.7,2.2c1.1,1.1,2.5,2,4.1,2.5
			c0.1,0,0.2,0.1,0.3,0.2c0.1,0.1,0.1,0.2,0.1,0.3c0,0.1,0,0.2-0.1,0.3s-0.2,0.2-0.3,0.2c-1.2,0.4-2.3,1-3.3,1.9l2.6,8.2l-2.5,6
			c-0.1,0.3,0.1,0.4,0.3,0.4h8.1c0.2,0,0.4-0.1,0.5-0.3l12.9-30.1C151.3,18.9,151.2,18.8,150.9,18.8"/>
		<path class="st1" d="M127.8,4.7c0-0.1,0-0.1,0.1-0.2c0-0.1,0.1-0.1,0.2-0.1c1-0.3,1.8-0.9,2.6-1.6c0.7-0.7,1.3-1.6,1.6-2.6
			c0-0.1,0.1-0.1,0.1-0.2c0.1,0,0.1-0.1,0.2-0.1s0.1,0,0.2,0.1c0.1,0,0.1,0.1,0.1,0.2c0.3,1,0.9,1.8,1.6,2.6s1.6,1.3,2.6,1.6
			c0.1,0,0.1,0.1,0.2,0.1c0,0.1,0.1,0.1,0.1,0.2s0,0.1-0.1,0.2c0,0.1-0.1,0.1-0.2,0.1c-1,0.3-1.8,0.9-2.6,1.6s-1.3,1.6-1.6,2.6
			c0,0.1-0.1,0.1-0.1,0.2c-0.1,0-0.1,0.1-0.2,0.1s-0.1,0-0.2-0.1c-0.1,0-0.1-0.1-0.1-0.2c-0.3-1-0.9-1.8-1.6-2.6s-1.6-1.3-2.6-1.6
			c-0.1,0-0.1-0.1-0.2-0.1C127.9,4.9,127.8,4.8,127.8,4.7L127.8,4.7L127.8,4.7z"/>
		<path class="st1" d="M122.7,9.5c1.2-0.4,2.2-1.4,2.6-2.6c0-0.1,0.1-0.2,0.3-0.3s0.3-0.1,0.4,0c0.1,0.1,0.2,0.2,0.3,0.3
			c0.4,1.2,1.4,2.2,2.6,2.6c0.1,0,0.2,0.1,0.3,0.3s0.1,0.3,0,0.4s-0.2,0.2-0.3,0.3c-1.2,0.4-2.2,1.4-2.6,2.6c0,0.1-0.1,0.2-0.3,0.3
			c-0.1,0.1-0.3,0.1-0.4,0c-0.1-0.1-0.2-0.2-0.3-0.3c-0.4-1.2-1.4-2.2-2.6-2.6c-0.1,0-0.2-0.1-0.3-0.3c-0.1-0.1-0.1-0.3,0-0.4
			S122.6,9.5,122.7,9.5L122.7,9.5z"/>
	</g>
</g>
</svg>
